{
  "accessors": [
    {
      "bufferView": 2,
      "componentType": 5126,
      "count": 6815,
      "max": [
        229.16900634765625,
        250.6739044189453,
        259.4602966308594
      ],
      "min": [
        -229.0782012939453,
        -250.63189697265625,
        -266.0281982421875
      ],
      "type": "VEC3"
    },
    {
      "bufferView": 2,
      "byteOffset": 81780,
      "componentType": 5126,
      "count": 6815,
      "max": [
        1.0,
        1.0,
        1.0
      ],
      "min": [
        -1.0,
        -1.0,
        -1.0
      ],
      "type": "VEC3"
    },
    {
      "bufferView": 1,
      "componentType": 5126,
      "count": 6815,
      "max": [
        6.0,
        1.0
      ],
      "min": [
        -0.25,
        0.0
      ],
      "type": "VEC2"
    },
    {
      "bufferView": 0,
      "componentType": 5125,
      "count": 17895,
      "type": "SCALAR"
    },
    {
      "bufferView": 2,
      "byteOffset": 163560,
      "componentType": 5126,
      "count": 1442,
      "max": [
        82.66929626464844,
        82.96050262451172,
        172.69931030273438
      ],
      "min": [
        -85.35250091552734,
        -89.722900390625,
        -256.38690185546875
      ],
      "type": "VEC3"
    },
    {
      "bufferView": 2,
      "byteOffset": 180864,
      "componentType": 5126,
      "count": 1442,
      "max": [
        1.0,
        1.0,
        1.0
      ],
      "min": [
        -1.0,
        -1.0,
        -1.0
      ],
      "type": "VEC3"
    },
    {
      "bufferView": 1,
      "byteOffset": 54520,
      "componentType": 5126,
      "count": 1442,
      "max": [
        1.0006999969482422,
        0.8015999794006348
      ],
      "min": [
        0.0035000001080334187,
        0.48240000009536743
      ],
      "type": "VEC2"
    },
    {
      "bufferView": 0,
      "byteOffset": 71580,
      "componentType": 5125,
      "count": 3741,
      "type": "SCALAR"
    },
    {
      "bufferView": 2,
      "byteOffset": 198168,
      "componentType": 5126,
      "count": 93,
      "max": [
        57.89929962158203,
        57.73649978637695,
        258.2641906738281
      ],
      "min": [
        -57.850799560546875,
        -57.379600524902344,
        -45.36439895629883
      ],
      "type": "VEC3"
    },
    {
      "bufferView": 2,
      "byteOffset": 199284,
      "componentType": 5126,
      "count": 93,
      "max": [
        1.0,
        1.0,
        2.735555426625069e-07
      ],
      "min": [
        -1.0,
        -0.9986292719841003,
        -1.8405397383958189e-07
      ],
      "type": "VEC3"
    },
    {
      "bufferView": 1,
      "byteOffset": 66056,
      "componentType": 5126,
      "count": 93,
      "max": [
        4.916200160980225,
        1.9989999532699585
      ],
      "min": [
        -0.08380000293254852,
        0.0010000000474974513
      ],
      "type": "VEC2"
    },
    {
      "bufferView": 0,
      "byteOffset": 86544,
      "componentType": 5125,
      "count": 300,
      "type": "SCALAR"
    },
    {
      "bufferView": 2,
      "byteOffset": 200400,
      "componentType": 5126,
      "count": 148,
      "max": [
        222.2333984375,
        248.19729614257813,
        -23.971805572509766
      ],
      "min": [
        -222.1427001953125,
        -248.53399658203125,
        -247.18609619140625
      ],
      "type": "VEC3"
    },
    {
      "bufferView": 2,
      "byteOffset": 202176,
      "componentType": 5126,
      "count": 148,
      "max": [
        1.0,
        1.0,
        1.0
      ],
      "min": [
        -1.0,
        -1.0,
        -1.0
      ],
      "type": "VEC3"
    },
    {
      "bufferView": 1,
      "byteOffset": 66800,
      "componentType": 5126,
      "count": 148,
      "max": [
        1.6993999481201172,
        1.0
      ],
      "min": [
        -0.125,
        0.0
      ],
      "type": "VEC2"
    },
    {
      "bufferView": 0,
      "byteOffset": 87744,
      "componentType": 5125,
      "count": 276,
      "type": "SCALAR"
    },
    {
      "bufferView": 2,
      "byteOffset": 203952,
      "componentType": 5126,
      "count": 312,
      "max": [
        44.44919967651367,
        0.31610000133514404,
        -100.39279174804688
      ],
      "min": [
        -44.52289962768555,
        -86.58740234375,
        -135.7895965576172
      ],
      "type": "VEC3"
    },
    {
      "bufferView": 2,
      "byteOffset": 207696,
      "componentType": 5126,
      "count": 312,
      "max": [
        0.9999875426292419,
        0.9999838471412659,
        0.9999924302101135
      ],
      "min": [
        -0.9999875426292419,
        -0.9999943375587463,
        -0.9999923706054688
      ],
      "type": "VEC3"
    },
    {
      "bufferView": 1,
      "byteOffset": 67984,
      "componentType": 5126,
      "count": 312,
      "max": [
        0.9994999766349792,
        1.0
      ],
      "min": [
        -0.25,
        0.0
      ],
      "type": "VEC2"
    },
    {
      "bufferView": 0,
      "byteOffset": 88848,
      "componentType": 5125,
      "count": 768,
      "type": "SCALAR"
    }
  ],
  "asset": {
    "extras": {
      "author": "NASA (https://sketchfab.com/NASA)",
      "license": "CC-BY-NC-4.0 (http://creativecommons.org/licenses/by-nc/4.0/)",
      "source": "https://sketchfab.com/3d-models/hubble-space-telescope-640764e1a20a4c7ea9718a83a05bcb7f",
      "title": "Hubble Space Telescope"
    },
    "generator": "Sketchfab-12.63.0",
    "version": "2.0"
  },
  "bufferViews": [
    {
      "buffer": 0,
      "byteLength": 91920,
      "name": "floatBufferViews",
      "target": 34963
    },
    {
      "buffer": 0,
      "byteLength": 70480,
      "byteOffset": 91920,
      "byteStride": 8,
      "name": "floatBufferViews",
      "target": 34962
    },
    {
      "buffer": 0,
      "byteLength": 211440,
      "byteOffset": 162400,
      "byteStride": 12,
      "name": "floatBufferViews",
      "target": 34962
    }
  ],
  "buffers": [
    {
      "byteLength": 373840,
      "uri": "scene.bin"
    }
  ],
  "images": [
    {
      "uri": "textures/hbltel_1_baseColor.png"
    },
    {
      "uri": "textures/hbltel_2_baseColor.png"
    },
    {
      "uri": "textures/hbltel_4_baseColor.png"
    },
    {
      "uri": "textures/hbltel_3_baseColor.png"
    },
    {
      "uri": "textures/hbltel_wfc_1_baseColor.png"
    }
  ],
  "materials": [
    {
      "doubleSided": true,
      "name": "hbltel_1",
      "pbrMetallicRoughness": {
        "baseColorTexture": {
          "index": 0
        },
        "metallicFactor": 0.0,
        "roughnessFactor": 0.6
      }
    },
    {
      "doubleSided": true,
      "name": "hbltel_2",
      "pbrMetallicRoughness": {
        "baseColorTexture": {
          "index": 1
        },
        "metallicFactor": 0.0,
        "roughnessFactor": 0.6
      }
    },
    {
      "doubleSided": true,
      "name": "hbltel_4",
      "pbrMetallicRoughness": {
        "baseColorTexture": {
          "index": 2
        },
        "metallicFactor": 0.0,
        "roughnessFactor": 0.6
      }
    },
    {
      "doubleSided": true,
      "name": "hbltel_3",
      "pbrMetallicRoughness": {
        "baseColorTexture": {
          "index": 3
        },
        "metallicFactor": 0.0,
        "roughnessFactor": 0.6
      }
    },
    {
      "doubleSided": true,
      "name": "hbltel_wfc_1",
      "pbrMetallicRoughness": {
        "baseColorTexture": {
          "index": 4
        },
        "metallicFactor": 0.0,
        "roughnessFactor": 0.6
      }
    }
  ],
  "meshes": [
    {
      "name": "Object_0",
      "primitives": [
        {
          "attributes": {
            "NORMAL": 1,
            "POSITION": 0,
            "TEXCOORD_0": 2
          },
          "indices": 3,
          "material": 0,
          "mode": 4
        }
      ]
    },
    {
      "name": "Object_1",
      "primitives": [
        {
          "attributes": {
            "NORMAL": 5,
            "POSITION": 4,
            "TEXCOORD_0": 6
          },
          "indices": 7,
          "material": 1,
          "mode": 4
        }
      ]
    },
    {
      "name": "Object_2",
      "primitives": [
        {
          "attributes": {
            "NORMAL": 9,
            "POSITION": 8,
            "TEXCOORD_0": 10
          },
          "indices": 11,
          "material": 2,
          "mode": 4
        }
      ]
    },
    {
      "name": "Object_3",
      "primitives": [
        {
          "attributes": {
            "NORMAL": 13,
            "POSITION": 12,
            "TEXCOORD_0": 14
          },
          "indices": 15,
          "material": 3,
          "mode": 4
        }
      ]
    },
    {
      "name": "Object_4",
      "primitives": [
        {
          "attributes": {
            "NORMAL": 17,
            "POSITION": 16,
            "TEXCOORD_0": 18
          },
          "indices": 19,
          "material": 4,
          "mode": 4
        }
      ]
    }
  ],
  "nodes": [
    {
      "children": [
        1
      ],
      "matrix": [
        1.0,
        0.0,
        0.0,
        0.0,
        0.0,
        2.220446049250313e-16,
        -1.0,
        0.0,
        0.0,
        1.0,
        2.220446049250313e-16,
        0.0,
        0.0,
        0.0,
        0.0,
        1.0
      ],
      "name": "Sketchfab_model"
    },
    {
      "children": [
        2
      ],
      "matrix": [
        1.0,
        0.0,
        0.0,
        0.0,
        0.0,
        1.0,
        0.0,
        0.0,
        0.0,
        0.0,
        1.0,
        0.0,
        -0.007899999618530273,
        0.267300009727478,
        -259.4602966308594,
        1.0
      ],
      "name": "hst"
    },
    {
      "children": [
        3,
        4,
        5,
        6,
        7
      ],
      "matrix": [
        1.0,
        0.0,
        0.0,
        0.0,
        0.0,
        1.0,
        0.0,
        0.0,
        0.0,
        0.0,
        1.0,
        0.0,
        0.007899999618530273,
        -0.267300009727478,
        259.4602966308594,
        1.0
      ],
      "name": "3DSMeshMatrix"
    },
    {
      "mesh": 0,
      "name": "Object_3"
    },
    {
      "mesh": 1,
      "name": "Object_4"
    },
    {
      "mesh": 2,
      "name": "Object_5"
    },
    {
      "mesh": 3,
      "name": "Object_6"
    },
    {
      "mesh": 4,
      "name": "Object_7"
    }
  ],
  "samplers": [
    {
      "magFilter": 9729,
      "minFilter": 9987,
      "wrapS": 10497,
      "wrapT": 10497
    }
  ],
  "scene": 0,
  "scenes": [
    {
      "name": "Sketchfab_Scene",
      "nodes": [
        0
      ]
    }
  ],
  "textures": [
    {
      "sampler": 0,
      "source": 0
    },
    {
      "sampler": 0,
      "source": 1
    },
    {
      "sampler": 0,
      "source": 2
    },
    {
      "sampler": 0,
      "source": 3
    },
    {
      "sampler": 0,
      "source": 4
    }
  ]
}
